# xmcd
# 
# Track frame offsets:
#     150
#     16533
#     31697
#     57383
#     83903
#     105997
#     118730
#     142989
#     163926
#     173324
#     193979
# 
# Disc length: 2941
# 
# Revision: 1
# Processed by: cddbd v1.5.2PL0 Copyright (c) Steve Scherf et al.
# Submitted via: BonkEnc v1.0.8
# 
DISCID=800b7b0b
DTITLE=Massimo Colombo - Salti ed Assalti
DYEAR=1999
DGENRE=Contemporary Jazz
TTITLE0=Salti ed assalti
TTITLE1=To Lennie
TTITLE2=Flow
TTITLE3=Stay in the bell
TTITLE4=A passo di lumaca
TTITLE5=Al pub
TTITLE6=Bollito Cubano
TTITLE7=Moves in nine
TTITLE8=To Bird
TTITLE9=Impulsi armonici
TTITLE10=Stand
EXTD=YEAR: 1999
EXTT0=
EXTT1=
EXTT2=
EXTT3=
EXTT4=
EXTT5=
EXTT6=
EXTT7=
EXTT8=
EXTT9=
EXTT10=
PLAYORDER=
